<?xml version="1.0" encoding="utf-8"?>
<!-- Generator: Adobe Illustrator 22.1.0, SVG Export Plug-In . SVG Version: 6.00 Build 0)  -->
<svg version="1.1"
	 id="svg3209" inkscape:version="0.48.2 r9819" sodipodi:docname="pinky" xmlns:cc="http://creativecommons.org/ns#" xmlns:dc="http://purl.org/dc/elements/1.1/" xmlns:inkscape="http://www.inkscape.org/namespaces/inkscape" xmlns:rdf="http://www.w3.org/1999/02/22-rdf-syntax-ns#" xmlns:sodipodi="http://sodipodi.sourceforge.net/DTD/sodipodi-0.dtd" xmlns:svg="http://www.w3.org/2000/svg"
	 xmlns="http://www.w3.org/2000/svg" xmlns:xlink="http://www.w3.org/1999/xlink" x="0px" y="0px" viewBox="0 0 60 60"
	 style="enable-background:new 0 0 60 60;" xml:space="preserve">
<style type="text/css">
	.st0{fill:#CEAA7C;}
	.st1{fill:#EBCB00;}
	.st2{fill:#FFF48C;}
	.st3{fill:#FFAA54;}
	.st4{fill:#8CFFE4;stroke:#45413C;stroke-linecap:round;stroke-linejoin:round;}
	.st5{fill:#E5FFF9;}
	.st6{fill:none;stroke:#45413C;stroke-linecap:round;stroke-linejoin:round;}
</style>
<title  id="title3238">Inky</title>
<sodipodi:namedview  bordercolor="#666666" borderopacity="1.0" fit-margin-bottom="0" fit-margin-left="0" fit-margin-right="0" fit-margin-top="0" id="base" inkscape:current-layer="g3048" inkscape:cx="56.727193" inkscape:cy="-67.066627" inkscape:document-units="px" inkscape:pageopacity="0.0" inkscape:pageshadow="2" inkscape:window-height="1148" inkscape:window-maximized="1" inkscape:window-width="1920" inkscape:window-x="-8" inkscape:window-y="-8" inkscape:zoom="1.4" pagecolor="#ffffff" showgrid="false">
	</sodipodi:namedview>
<ellipse id="_Ellipse_" class="st0" cx="30.5" cy="30.5" rx="28.1" ry="27.5"/>
<path id="_Compound_Path_" class="st1" d="M30.5,3C15,3,2.4,15.3,2.4,30.5S15,57.9,30.5,57.9s28.1-12.3,28.1-27.5S46.1,3,30.5,3z
	 M30.5,53.8c-14.2,0-25.7-11.2-25.7-25.1S16.3,3.7,30.5,3.7s25.7,11.2,25.7,25.1S44.7,53.8,30.5,53.8z"/>
<ellipse id="_Ellipse_2" class="st2" cx="30.5" cy="8.5" rx="8.4" ry="2.1"/>
<path id="_Path_" class="st3" d="M50.9,37.3c0,1.1-1.6,2.1-3.5,2.1c-1.9,0-3.5-0.9-3.5-2.1s1.6-2.1,3.5-2.1
	C49.4,35.3,50.9,36.2,50.9,37.3z"/>
<path id="_Path_2" class="st3" d="M10.1,37.3c0,1.1,1.6,2.1,3.5,2.1s3.5-0.9,3.5-2.1s-1.6-2.1-3.5-2.1S10.1,36.2,10.1,37.3z"/>
<path id="_Path_3" class="st4" d="M15,53.4c9.4,6,21.6,6,31,0v-12c0,0-8.4-3.4-15.5-3.4S15,41.5,15,41.5V53.4z"/>
<path id="_Path_4" class="st5" d="M30.5,38c-7,0-15.5,3.4-15.5,3.4v3.4c0,0,8.4-3.4,15.5-3.4S46,44.9,46,44.9v-3.4
	C46,41.5,37.6,38,30.5,38z"/>
<path id="_Path_5" class="st6" d="M15,53.4c9.4,6,21.6,6,31,0v-12c0,0-8.4-3.4-15.5-3.4S15,41.5,15,41.5V53.4z"/>
<ellipse id="_Ellipse_4" class="st6" cx="30.5" cy="30.5" rx="28.1" ry="27.5"/>
<line id="_Path_6" class="st6" x1="15" y1="41.5" x2="2.4" y2="31.8"/>
<line id="_Path_7" class="st6" x1="46" y1="41.5" x2="58.7" y2="31.8"/>
<path id="_Path_8" class="st6" d="M46,47c1.7,0.9,3.7,1.4,5.6,1.4"/>
<path id="_Path_9" class="st6" d="M15,47c-1.7,0.9-3.7,1.4-5.6,1.4"/>
<line id="_Line_" class="st6" x1="20" y1="29.8" x2="12.2" y2="29.8"/>
<line id="_Line_2" class="st6" x1="48.8" y1="29.8" x2="41.1" y2="29.8"/>
<path id="_Path_10" class="st6" d="M15,23.1c1.7-0.3,3.3-0.8,4.7-1.5c1.5-0.7,2.9-1.7,4.1-2.8"/>
<path id="_Path_11" class="st6" d="M46,23.1c-1.7-0.3-3.3-0.8-4.7-1.5c-1.5-0.7-2.9-1.7-4.1-2.8"/>
</svg>
